<mxfile host="app.diagrams.net" modified="2020-12-20T11:48:57.973Z" agent="5.0 (Windows NT 10.0; Win64; x64) AppleWebKit/537.36 (KHTML, like Gecko) Chrome/87.0.4280.88 Safari/537.36 Edg/87.0.664.66" etag="KwPWj4oky_OOuKo2nM_m" version="14.0.4" type="github">
  <diagram id="GsA88-R3-k9HEr8MOIdp" name="Page-1">
    <mxGraphModel dx="3024" dy="1061" grid="1" gridSize="10" guides="1" tooltips="1" connect="1" arrows="1" fold="1" page="1" pageScale="1" pageWidth="1100" pageHeight="850" math="0" shadow="0">
      <root>
        <mxCell id="0" />
        <mxCell id="1" parent="0" />
        <mxCell id="DxOmsWcF1WVwctE-kaGi-1" value="Nhanvien" style="shape=umlLifeline;participant=umlActor;perimeter=lifelinePerimeter;whiteSpace=wrap;html=1;container=1;collapsible=0;recursiveResize=0;verticalAlign=top;spacingTop=36;outlineConnect=0;fontSize=15;" parent="1" vertex="1">
          <mxGeometry x="10" y="95" width="30" height="960" as="geometry" />
        </mxCell>
        <mxCell id="DxOmsWcF1WVwctE-kaGi-8" value="Chọn mốc thời gian&amp;nbsp;" style="html=1;verticalAlign=bottom;endArrow=block;fontSize=15;" parent="DxOmsWcF1WVwctE-kaGi-1" target="DxOmsWcF1WVwctE-kaGi-7" edge="1">
          <mxGeometry width="80" relative="1" as="geometry">
            <mxPoint x="10" y="115" as="sourcePoint" />
            <mxPoint x="90" y="115" as="targetPoint" />
          </mxGeometry>
        </mxCell>
        <mxCell id="DxOmsWcF1WVwctE-kaGi-23" value="Nhập thông tin nhân viên mới" style="html=1;verticalAlign=bottom;endArrow=block;fontSize=15;" parent="DxOmsWcF1WVwctE-kaGi-1" target="DxOmsWcF1WVwctE-kaGi-2" edge="1">
          <mxGeometry width="80" relative="1" as="geometry">
            <mxPoint x="20" y="435" as="sourcePoint" />
            <mxPoint x="100" y="435" as="targetPoint" />
          </mxGeometry>
        </mxCell>
        <mxCell id="DxOmsWcF1WVwctE-kaGi-36" value="Chọn nút sắp xếp lịch làm" style="html=1;verticalAlign=bottom;endArrow=block;fontSize=15;" parent="DxOmsWcF1WVwctE-kaGi-1" target="DxOmsWcF1WVwctE-kaGi-7" edge="1">
          <mxGeometry width="80" relative="1" as="geometry">
            <mxPoint x="10" y="785" as="sourcePoint" />
            <mxPoint x="90" y="785" as="targetPoint" />
          </mxGeometry>
        </mxCell>
        <mxCell id="DxOmsWcF1WVwctE-kaGi-45" value="" style="html=1;points=[];perimeter=orthogonalPerimeter;fontSize=15;" parent="DxOmsWcF1WVwctE-kaGi-1" vertex="1">
          <mxGeometry x="10" y="97.5" width="10" height="832.5" as="geometry" />
        </mxCell>
        <mxCell id="DxOmsWcF1WVwctE-kaGi-2" value="ThemNVForm" style="shape=umlLifeline;participant=umlBoundary;perimeter=lifelinePerimeter;whiteSpace=wrap;html=1;container=1;collapsible=0;recursiveResize=0;verticalAlign=top;spacingTop=36;outlineConnect=0;fontSize=15;" parent="1" vertex="1">
          <mxGeometry x="320" y="95" width="50" height="970" as="geometry" />
        </mxCell>
        <mxCell id="DxOmsWcF1WVwctE-kaGi-16" value="IN()" style="html=1;verticalAlign=bottom;endArrow=block;fontSize=15;" parent="DxOmsWcF1WVwctE-kaGi-2" target="DxOmsWcF1WVwctE-kaGi-15" edge="1">
          <mxGeometry x="0.0167" y="10" width="80" relative="1" as="geometry">
            <mxPoint x="30" y="265" as="sourcePoint" />
            <mxPoint x="110" y="265" as="targetPoint" />
            <mxPoint as="offset" />
          </mxGeometry>
        </mxCell>
        <mxCell id="DxOmsWcF1WVwctE-kaGi-24" value="Thêm nhân viên()" style="html=1;verticalAlign=bottom;endArrow=block;fontSize=15;" parent="DxOmsWcF1WVwctE-kaGi-2" target="DxOmsWcF1WVwctE-kaGi-5" edge="1">
          <mxGeometry width="80" relative="1" as="geometry">
            <mxPoint x="30" y="455" as="sourcePoint" />
            <mxPoint x="110" y="455" as="targetPoint" />
          </mxGeometry>
        </mxCell>
        <mxCell id="DxOmsWcF1WVwctE-kaGi-57" value="" style="html=1;points=[];perimeter=orthogonalPerimeter;fontSize=15;" parent="DxOmsWcF1WVwctE-kaGi-2" vertex="1">
          <mxGeometry x="20" y="250" width="10" height="240" as="geometry" />
        </mxCell>
        <mxCell id="DxOmsWcF1WVwctE-kaGi-3" value="CapNhatNhanvienForm" style="shape=umlLifeline;participant=umlBoundary;perimeter=lifelinePerimeter;whiteSpace=wrap;html=1;container=1;collapsible=0;recursiveResize=0;verticalAlign=top;spacingTop=36;outlineConnect=0;fontSize=15;" parent="1" vertex="1">
          <mxGeometry x="460" y="95" width="50" height="970" as="geometry" />
        </mxCell>
        <mxCell id="DxOmsWcF1WVwctE-kaGi-59" value="" style="html=1;points=[];perimeter=orthogonalPerimeter;fontSize=15;" parent="DxOmsWcF1WVwctE-kaGi-3" vertex="1">
          <mxGeometry x="20" y="600" width="10" height="65" as="geometry" />
        </mxCell>
        <mxCell id="DxOmsWcF1WVwctE-kaGi-5" value="NhanvienController" style="shape=umlLifeline;participant=umlControl;perimeter=lifelinePerimeter;whiteSpace=wrap;html=1;container=1;collapsible=0;recursiveResize=0;verticalAlign=top;spacingTop=36;outlineConnect=0;fontSize=15;" parent="1" vertex="1">
          <mxGeometry x="790" y="95" width="40" height="970" as="geometry" />
        </mxCell>
        <mxCell id="DxOmsWcF1WVwctE-kaGi-25" value="Lưu và cập nhật thông tin nhân viên()" style="html=1;verticalAlign=bottom;endArrow=block;fontSize=15;" parent="DxOmsWcF1WVwctE-kaGi-5" target="DxOmsWcF1WVwctE-kaGi-6" edge="1">
          <mxGeometry width="80" relative="1" as="geometry">
            <mxPoint x="20" y="475" as="sourcePoint" />
            <mxPoint x="100" y="475" as="targetPoint" />
          </mxGeometry>
        </mxCell>
        <mxCell id="DxOmsWcF1WVwctE-kaGi-31" value="Lưu và cập nhật thông tin nhân viên()" style="html=1;verticalAlign=bottom;endArrow=block;fontSize=15;" parent="DxOmsWcF1WVwctE-kaGi-5" target="DxOmsWcF1WVwctE-kaGi-6" edge="1">
          <mxGeometry width="80" relative="1" as="geometry">
            <mxPoint x="20" y="665" as="sourcePoint" />
            <mxPoint x="100" y="665" as="targetPoint" />
          </mxGeometry>
        </mxCell>
        <mxCell id="DxOmsWcF1WVwctE-kaGi-49" value="" style="html=1;points=[];perimeter=orthogonalPerimeter;fontSize=15;" parent="DxOmsWcF1WVwctE-kaGi-5" vertex="1">
          <mxGeometry x="15" y="113" width="10" height="107" as="geometry" />
        </mxCell>
        <mxCell id="DxOmsWcF1WVwctE-kaGi-60" value="" style="html=1;points=[];perimeter=orthogonalPerimeter;fontSize=15;" parent="DxOmsWcF1WVwctE-kaGi-5" vertex="1">
          <mxGeometry x="15" y="443" width="10" height="67" as="geometry" />
        </mxCell>
        <mxCell id="DxOmsWcF1WVwctE-kaGi-66" value="" style="html=1;points=[];perimeter=orthogonalPerimeter;fontSize=15;" parent="DxOmsWcF1WVwctE-kaGi-5" vertex="1">
          <mxGeometry x="25" y="855" width="10" height="80" as="geometry" />
        </mxCell>
        <mxCell id="DxOmsWcF1WVwctE-kaGi-70" value="" style="html=1;points=[];perimeter=orthogonalPerimeter;fontSize=15;" parent="DxOmsWcF1WVwctE-kaGi-5" vertex="1">
          <mxGeometry x="15" y="625" width="10" height="80" as="geometry" />
        </mxCell>
        <mxCell id="DxOmsWcF1WVwctE-kaGi-6" value="Nhanvien" style="shape=umlLifeline;participant=umlEntity;perimeter=lifelinePerimeter;whiteSpace=wrap;html=1;container=1;collapsible=0;recursiveResize=0;verticalAlign=top;spacingTop=36;outlineConnect=0;fontSize=15;" parent="1" vertex="1">
          <mxGeometry x="1080" y="97.5" width="40" height="960" as="geometry" />
        </mxCell>
        <mxCell id="DxOmsWcF1WVwctE-kaGi-62" value="" style="html=1;points=[];perimeter=orthogonalPerimeter;fontSize=15;" parent="DxOmsWcF1WVwctE-kaGi-6" vertex="1">
          <mxGeometry x="20" y="632.5" width="10" height="80" as="geometry" />
        </mxCell>
        <mxCell id="DxOmsWcF1WVwctE-kaGi-63" value="" style="html=1;points=[];perimeter=orthogonalPerimeter;fontSize=15;" parent="DxOmsWcF1WVwctE-kaGi-6" vertex="1">
          <mxGeometry x="19" y="440.5" width="10" height="80" as="geometry" />
        </mxCell>
        <mxCell id="DxOmsWcF1WVwctE-kaGi-7" value="QLNhanvien" style="shape=umlLifeline;participant=umlBoundary;perimeter=lifelinePerimeter;whiteSpace=wrap;html=1;container=1;collapsible=0;recursiveResize=0;verticalAlign=top;spacingTop=36;outlineConnect=0;fontSize=15;" parent="1" vertex="1">
          <mxGeometry x="190" y="95" width="50" height="955" as="geometry" />
        </mxCell>
        <mxCell id="DxOmsWcF1WVwctE-kaGi-10" value="Lấy danh sách ca làm nhân viên()" style="html=1;verticalAlign=bottom;endArrow=block;fontSize=15;" parent="DxOmsWcF1WVwctE-kaGi-7" target="DxOmsWcF1WVwctE-kaGi-5" edge="1">
          <mxGeometry width="80" relative="1" as="geometry">
            <mxPoint x="20" y="125" as="sourcePoint" />
            <mxPoint x="100" y="135" as="targetPoint" />
            <Array as="points">
              <mxPoint x="480" y="125" />
            </Array>
          </mxGeometry>
        </mxCell>
        <mxCell id="DxOmsWcF1WVwctE-kaGi-22" value="&lt;font style=&quot;font-size: 12px&quot;&gt;Hiển thị GD Thêm Nhân viên&lt;/font&gt;" style="html=1;verticalAlign=bottom;endArrow=open;dashed=1;endSize=8;fontSize=15;" parent="DxOmsWcF1WVwctE-kaGi-7" source="DxOmsWcF1WVwctE-kaGi-2" edge="1">
          <mxGeometry x="-0.4458" relative="1" as="geometry">
            <mxPoint x="110" y="405" as="sourcePoint" />
            <mxPoint x="30" y="405" as="targetPoint" />
            <mxPoint as="offset" />
          </mxGeometry>
        </mxCell>
        <mxCell id="DxOmsWcF1WVwctE-kaGi-46" value="" style="html=1;points=[];perimeter=orthogonalPerimeter;fontSize=15;" parent="DxOmsWcF1WVwctE-kaGi-7" vertex="1">
          <mxGeometry x="20" y="95" width="10" height="115" as="geometry" />
        </mxCell>
        <mxCell id="DxOmsWcF1WVwctE-kaGi-56" value="" style="html=1;points=[];perimeter=orthogonalPerimeter;fontSize=15;" parent="DxOmsWcF1WVwctE-kaGi-7" vertex="1">
          <mxGeometry x="10" y="332.23" width="10" height="87.77" as="geometry" />
        </mxCell>
        <mxCell id="DxOmsWcF1WVwctE-kaGi-58" value="" style="html=1;points=[];perimeter=orthogonalPerimeter;fontSize=15;" parent="DxOmsWcF1WVwctE-kaGi-7" vertex="1">
          <mxGeometry x="19" y="510" width="10" height="75" as="geometry" />
        </mxCell>
        <mxCell id="DxOmsWcF1WVwctE-kaGi-67" value="" style="html=1;points=[];perimeter=orthogonalPerimeter;fontSize=15;" parent="DxOmsWcF1WVwctE-kaGi-7" vertex="1">
          <mxGeometry x="19" y="765" width="10" height="80" as="geometry" />
        </mxCell>
        <mxCell id="wUo9u8nOnJUg-n2kmJeA-3" value="&lt;font style=&quot;font-size: 15px&quot;&gt;Gọi&amp;nbsp; GD Cập nhật nhân viên&lt;/font&gt;" style="html=1;verticalAlign=bottom;endArrow=block;" parent="DxOmsWcF1WVwctE-kaGi-7" target="DxOmsWcF1WVwctE-kaGi-3" edge="1">
          <mxGeometry width="80" relative="1" as="geometry">
            <mxPoint x="20" y="555" as="sourcePoint" />
            <mxPoint x="100" y="555" as="targetPoint" />
          </mxGeometry>
        </mxCell>
        <mxCell id="wUo9u8nOnJUg-n2kmJeA-4" value="Gọi GD Sắp xếp lịch làm" style="html=1;verticalAlign=bottom;endArrow=block;" parent="DxOmsWcF1WVwctE-kaGi-7" target="DxOmsWcF1WVwctE-kaGi-65" edge="1">
          <mxGeometry x="-0.0233" y="10" width="80" relative="1" as="geometry">
            <mxPoint x="30" y="795" as="sourcePoint" />
            <mxPoint x="110" y="795" as="targetPoint" />
            <mxPoint x="1" as="offset" />
          </mxGeometry>
        </mxCell>
        <mxCell id="DxOmsWcF1WVwctE-kaGi-12" value="DanhsachCaLamNV()" style="html=1;verticalAlign=bottom;endArrow=open;dashed=1;endSize=8;fontSize=15;" parent="1" source="DxOmsWcF1WVwctE-kaGi-39" target="DxOmsWcF1WVwctE-kaGi-5" edge="1">
          <mxGeometry x="-0.1167" relative="1" as="geometry">
            <mxPoint x="850" y="280" as="sourcePoint" />
            <mxPoint x="770" y="280" as="targetPoint" />
            <Array as="points">
              <mxPoint x="850" y="280" />
            </Array>
            <mxPoint as="offset" />
          </mxGeometry>
        </mxCell>
        <mxCell id="DxOmsWcF1WVwctE-kaGi-13" value="HienThiCaLamNhanvien()" style="html=1;verticalAlign=bottom;endArrow=open;dashed=1;endSize=8;fontSize=15;" parent="1" source="DxOmsWcF1WVwctE-kaGi-5" target="DxOmsWcF1WVwctE-kaGi-7" edge="1">
          <mxGeometry relative="1" as="geometry">
            <mxPoint x="650" y="290" as="sourcePoint" />
            <mxPoint x="570" y="290" as="targetPoint" />
            <Array as="points">
              <mxPoint x="630" y="300" />
            </Array>
          </mxGeometry>
        </mxCell>
        <mxCell id="DxOmsWcF1WVwctE-kaGi-15" value="MayIn" style="shape=umlLifeline;participant=umlActor;perimeter=lifelinePerimeter;whiteSpace=wrap;html=1;container=1;collapsible=0;recursiveResize=0;verticalAlign=top;spacingTop=36;outlineConnect=0;fontSize=15;" parent="1" vertex="1">
          <mxGeometry x="1200" y="107.5" width="20" height="950" as="geometry" />
        </mxCell>
        <mxCell id="DxOmsWcF1WVwctE-kaGi-61" value="" style="html=1;points=[];perimeter=orthogonalPerimeter;fontSize=15;" parent="DxOmsWcF1WVwctE-kaGi-15" vertex="1">
          <mxGeometry x="5" y="232.5" width="10" height="80" as="geometry" />
        </mxCell>
        <mxCell id="DxOmsWcF1WVwctE-kaGi-27" value="Chọn nút cập nhật Nhân viên" style="html=1;verticalAlign=bottom;endArrow=block;fontSize=15;" parent="1" source="DxOmsWcF1WVwctE-kaGi-1" target="DxOmsWcF1WVwctE-kaGi-7" edge="1">
          <mxGeometry width="80" relative="1" as="geometry">
            <mxPoint x="100" y="650" as="sourcePoint" />
            <mxPoint x="180" y="650" as="targetPoint" />
            <Array as="points">
              <mxPoint x="100" y="640" />
            </Array>
          </mxGeometry>
        </mxCell>
        <mxCell id="DxOmsWcF1WVwctE-kaGi-28" value="Hiển thị GD Cập nhật Nhân viên" style="html=1;verticalAlign=bottom;endArrow=open;dashed=1;endSize=8;fontSize=15;" parent="1" source="DxOmsWcF1WVwctE-kaGi-3" target="DxOmsWcF1WVwctE-kaGi-7" edge="1">
          <mxGeometry relative="1" as="geometry">
            <mxPoint x="490" y="670" as="sourcePoint" />
            <mxPoint x="410" y="670" as="targetPoint" />
            <Array as="points">
              <mxPoint x="370" y="680" />
            </Array>
          </mxGeometry>
        </mxCell>
        <mxCell id="DxOmsWcF1WVwctE-kaGi-32" value="Lấy Danh sách ca làm nhân viên(Search)" style="html=1;verticalAlign=bottom;endArrow=block;fontSize=15;" parent="1" source="DxOmsWcF1WVwctE-kaGi-5" target="DxOmsWcF1WVwctE-kaGi-39" edge="1">
          <mxGeometry x="0.0579" width="80" relative="1" as="geometry">
            <mxPoint x="730" y="240" as="sourcePoint" />
            <mxPoint x="810" y="240" as="targetPoint" />
            <Array as="points">
              <mxPoint x="810" y="250" />
            </Array>
            <mxPoint as="offset" />
          </mxGeometry>
        </mxCell>
        <mxCell id="DxOmsWcF1WVwctE-kaGi-34" value="SapxepLichLamForm" style="shape=umlLifeline;participant=umlBoundary;perimeter=lifelinePerimeter;whiteSpace=wrap;html=1;container=1;collapsible=0;recursiveResize=0;verticalAlign=top;spacingTop=36;outlineConnect=0;fontSize=15;" parent="1" vertex="1">
          <mxGeometry x="620" y="95" width="50" height="950" as="geometry" />
        </mxCell>
        <mxCell id="DxOmsWcF1WVwctE-kaGi-65" value="" style="html=1;points=[];perimeter=orthogonalPerimeter;fontSize=15;" parent="DxOmsWcF1WVwctE-kaGi-34" vertex="1">
          <mxGeometry x="30" y="780" width="10" height="145" as="geometry" />
        </mxCell>
        <mxCell id="DxOmsWcF1WVwctE-kaGi-37" value="Hiển thị GD Sắp xếp lịch làm" style="html=1;verticalAlign=bottom;endArrow=open;dashed=1;endSize=8;fontSize=15;" parent="1" source="DxOmsWcF1WVwctE-kaGi-34" target="DxOmsWcF1WVwctE-kaGi-7" edge="1">
          <mxGeometry x="0.1367" relative="1" as="geometry">
            <mxPoint x="620" y="900" as="sourcePoint" />
            <mxPoint x="540" y="900" as="targetPoint" />
            <Array as="points">
              <mxPoint x="490" y="920" />
              <mxPoint x="320" y="920" />
            </Array>
            <mxPoint as="offset" />
          </mxGeometry>
        </mxCell>
        <mxCell id="DxOmsWcF1WVwctE-kaGi-39" value="Ca làm" style="shape=umlLifeline;participant=umlEntity;perimeter=lifelinePerimeter;whiteSpace=wrap;html=1;container=1;collapsible=0;recursiveResize=0;verticalAlign=top;spacingTop=36;outlineConnect=0;fontSize=15;" parent="1" vertex="1">
          <mxGeometry x="980" y="97.5" width="40" height="970" as="geometry" />
        </mxCell>
        <mxCell id="DxOmsWcF1WVwctE-kaGi-64" value="" style="html=1;points=[];perimeter=orthogonalPerimeter;fontSize=15;" parent="DxOmsWcF1WVwctE-kaGi-39" vertex="1">
          <mxGeometry x="20" y="847.5" width="10" height="80" as="geometry" />
        </mxCell>
        <mxCell id="DxOmsWcF1WVwctE-kaGi-69" value="" style="html=1;points=[];perimeter=orthogonalPerimeter;fontSize=15;" parent="DxOmsWcF1WVwctE-kaGi-39" vertex="1">
          <mxGeometry x="15" y="150" width="10" height="82.5" as="geometry" />
        </mxCell>
        <mxCell id="DxOmsWcF1WVwctE-kaGi-55" value="Chọn nút thêm nhân viên" style="html=1;verticalAlign=bottom;endArrow=block;fontSize=15;" parent="1" source="DxOmsWcF1WVwctE-kaGi-1" target="DxOmsWcF1WVwctE-kaGi-56" edge="1">
          <mxGeometry x="-0.0678" width="80" relative="1" as="geometry">
            <mxPoint x="31.429999999999836" y="467.22500000000014" as="sourcePoint" />
            <mxPoint x="205" y="467.22500000000014" as="targetPoint" />
            <Array as="points">
              <mxPoint x="120" y="450" />
            </Array>
            <mxPoint as="offset" />
          </mxGeometry>
        </mxCell>
        <mxCell id="wUo9u8nOnJUg-n2kmJeA-1" value="&lt;font style=&quot;font-size: 13px&quot;&gt;Gọi GD thêm Nhân viên&lt;/font&gt;" style="html=1;verticalAlign=bottom;endArrow=block;" parent="1" source="DxOmsWcF1WVwctE-kaGi-56" target="DxOmsWcF1WVwctE-kaGi-2" edge="1">
          <mxGeometry x="0.0409" y="10" width="80" relative="1" as="geometry">
            <mxPoint x="210" y="480" as="sourcePoint" />
            <mxPoint x="340" y="480" as="targetPoint" />
            <Array as="points">
              <mxPoint x="240" y="460" />
            </Array>
            <mxPoint x="-1" as="offset" />
          </mxGeometry>
        </mxCell>
        <mxCell id="DxOmsWcF1WVwctE-kaGi-29" value="Cập nhật thông tin nhân viên&amp;nbsp;" style="html=1;verticalAlign=bottom;endArrow=block;fontSize=15;" parent="1" source="DxOmsWcF1WVwctE-kaGi-45" target="DxOmsWcF1WVwctE-kaGi-3" edge="1">
          <mxGeometry width="80" relative="1" as="geometry">
            <mxPoint x="30" y="710" as="sourcePoint" />
            <mxPoint x="110" y="710" as="targetPoint" />
            <Array as="points">
              <mxPoint x="50" y="720" />
              <mxPoint x="310" y="720" />
            </Array>
          </mxGeometry>
        </mxCell>
        <mxCell id="DxOmsWcF1WVwctE-kaGi-38" value="Nhập thông tin ca làm mới cho nhân viên" style="html=1;verticalAlign=bottom;endArrow=block;fontSize=15;" parent="1" source="DxOmsWcF1WVwctE-kaGi-45" target="DxOmsWcF1WVwctE-kaGi-34" edge="1">
          <mxGeometry x="0.4732" width="80" relative="1" as="geometry">
            <mxPoint x="20" y="940" as="sourcePoint" />
            <mxPoint x="100" y="940" as="targetPoint" />
            <mxPoint as="offset" />
            <Array as="points">
              <mxPoint x="40" y="960" />
              <mxPoint x="70" y="960" />
            </Array>
          </mxGeometry>
        </mxCell>
        <mxCell id="DxOmsWcF1WVwctE-kaGi-40" value="Cập nhật ca làm mới()" style="html=1;verticalAlign=bottom;endArrow=block;fontSize=15;" parent="1" source="DxOmsWcF1WVwctE-kaGi-65" target="DxOmsWcF1WVwctE-kaGi-66" edge="1">
          <mxGeometry width="80" relative="1" as="geometry">
            <mxPoint x="660" y="968" as="sourcePoint" />
            <mxPoint x="730" y="967.5" as="targetPoint" />
            <Array as="points">
              <mxPoint x="690" y="980" />
              <mxPoint x="740" y="980" />
            </Array>
          </mxGeometry>
        </mxCell>
        <mxCell id="DxOmsWcF1WVwctE-kaGi-41" value="Lưu ca làm mới()" style="html=1;verticalAlign=bottom;endArrow=block;fontSize=15;" parent="1" target="DxOmsWcF1WVwctE-kaGi-39" edge="1">
          <mxGeometry width="80" relative="1" as="geometry">
            <mxPoint x="830" y="1000" as="sourcePoint" />
            <mxPoint x="900" y="987.5" as="targetPoint" />
            <Array as="points" />
          </mxGeometry>
        </mxCell>
        <mxCell id="DxOmsWcF1WVwctE-kaGi-30" value="Cập nhật nhân viên()" style="html=1;verticalAlign=bottom;endArrow=block;fontSize=15;exitX=0.99;exitY=0.855;exitDx=0;exitDy=0;exitPerimeter=0;" parent="1" target="DxOmsWcF1WVwctE-kaGi-5" edge="1" source="DxOmsWcF1WVwctE-kaGi-59">
          <mxGeometry width="80" relative="1" as="geometry">
            <mxPoint x="350" y="740" as="sourcePoint" />
            <mxPoint x="430" y="740" as="targetPoint" />
          </mxGeometry>
        </mxCell>
      </root>
    </mxGraphModel>
  </diagram>
</mxfile>
